<svg xmlns="http://www.w3.org/2000/svg" viewBox="0 0 100 100">
  <defs>
    <linearGradient id="bg" x1="0" y1="0" x2="1" y2="1">
      <stop offset="0%" stop-color="#fef6f0"/>
      <stop offset="50%" stop-color="#f3e8ff"/>
      <stop offset="100%" stop-color="#ddf4ff"/>
    </linearGradient>
  </defs>
  <rect width="100" height="100" rx="22" fill="url(#bg)"/>
  <path d="M5 88 Q 22 84 38 88 T 70 88 T 100 88 L 100 100 L 5 100 Z" fill="#a7c7f4" opacity="0.55"/>
  <path d="M5 92 Q 22 88 38 92 T 70 92 T 100 92 L 100 100 L 5 100 Z" fill="#7fa8e8" opacity="0.5"/>
  <circle cx="32" cy="60" r="14" fill="#ffffff" stroke="#e9d8fd" stroke-width="1.2"/>
  <circle cx="50" cy="52" r="17" fill="#ffffff" stroke="#e9d8fd" stroke-width="1.2"/>
  <circle cx="68" cy="60" r="14" fill="#ffffff" stroke="#e9d8fd" stroke-width="1.2"/>
  <circle cx="40" cy="70" r="11" fill="#ffffff" stroke="#e9d8fd" stroke-width="1.2"/>
  <circle cx="60" cy="70" r="11" fill="#ffffff" stroke="#e9d8fd" stroke-width="1.2"/>
  <ellipse cx="40" cy="52" rx="3" ry="4" fill="#fde4d3" transform="rotate(-25 40 52)"/>
  <ellipse cx="60" cy="52" rx="3" ry="4" fill="#fde4d3" transform="rotate(25 60 52)"/>
  <ellipse cx="50" cy="62" rx="11" ry="9.5" fill="#fde4d3"/>
  <circle cx="46" cy="61" r="1.4" fill="#4c3a5e"/>
  <circle cx="54" cy="61" r="1.4" fill="#4c3a5e"/>
  <path d="M46 66 Q 50 69 54 66" stroke="#4c3a5e" stroke-width="1.4" fill="none" stroke-linecap="round"/>
  <path d="M28 38 Q 28 26 50 26 Q 72 26 72 38 Z" fill="#ffffff" stroke="#e9d8fd" stroke-width="1.2"/>
  <ellipse cx="50" cy="38" rx="22" ry="3.5" fill="#ffffff" stroke="#e9d8fd" stroke-width="1.2"/>
  <rect x="28" y="38" width="44" height="3" fill="#b794f4"/>
  <circle cx="50" cy="32" r="2" fill="none" stroke="#b794f4" stroke-width="1.4"/>
  <line x1="50" y1="32" x2="50" y2="36" stroke="#b794f4" stroke-width="1.4" stroke-linecap="round"/>
  <path d="M47.5 35.5 Q 50 37.5 52.5 35.5" stroke="#b794f4" stroke-width="1.4" fill="none" stroke-linecap="round"/>
</svg>
